# Blender v2.72 (sub 0) OBJ File: ''
# www.blender.org
o Cube
v 1.000000 -1.000000 -1.000000
v 1.000000 -1.000000 1.000000
v -1.000000 -1.000000 1.000000
v -1.000000 -1.000000 -1.000000
v 0.230012 1.000000 -0.230012
v 0.230012 1.000000 0.230012
v -0.230012 1.000000 0.230012
v -0.230012 1.000000 -0.230012
v 0.230012 2.018103 -0.230012
v 0.230012 2.018103 0.230012
v -0.230012 2.018103 0.230012
v -0.230012 2.018103 -0.230012
v 0.230012 2.915280 -0.230012
v 0.230012 2.915280 0.230012
v -0.230012 2.915280 0.230012
v -0.230012 2.915280 -0.230012
vt 0.000000 0.000000
vt 0.000100 0.999555
vt 0.000445 0.000100
vt 0.999900 0.000445
vt 0.999556 0.999900
vn 0.000000 -1.000000 0.000000
vn -1.000000 0.000000 -0.000000
vn 0.933200 0.359300 0.000000
vn -0.000000 0.359300 0.933200
vn -0.933200 0.359300 -0.000000
vn 0.000000 0.359300 -0.933200
vn -0.000000 0.000000 1.000000
vn 0.000000 0.000000 -1.000000
vn 1.000000 0.000000 0.000000
vn 0.000000 1.000000 0.000000
s off
f 2/1/1 3/1/1 4/1/1
f 7/1/2 11/1/2 12/1/2
f 1/1/3 5/1/3 6/1/3
f 2/1/4 6/1/4 7/1/4
f 7/1/5 8/1/5 4/1/5
f 1/1/6 4/1/6 8/1/6
f 11/1/2 15/1/2 16/1/2
f 6/1/7 10/1/7 11/1/7
f 8/1/8 12/1/8 9/1/8
f 5/1/9 9/1/9 10/1/9
f 16/2/10 15/3/10 14/4/10
f 10/1/7 14/1/7 15/1/7
f 12/1/8 16/1/8 13/1/8
f 9/1/9 13/1/9 14/1/9
f 1/1/1 2/1/1 4/1/1
f 8/1/2 7/1/2 12/1/2
f 2/1/3 1/1/3 6/1/3
f 3/1/4 2/1/4 7/1/4
f 3/1/5 7/1/5 4/1/5
f 5/1/6 1/1/6 8/1/6
f 12/1/2 11/1/2 16/1/2
f 7/1/7 6/1/7 11/1/7
f 5/1/8 8/1/8 9/1/8
f 6/1/9 5/1/9 10/1/9
f 13/5/10 16/2/10 14/4/10
f 11/1/7 10/1/7 15/1/7
f 9/1/8 12/1/8 13/1/8
f 10/1/9 9/1/9 14/1/9
